<svg xmlns="http://www.w3.org/2000/svg" width="122" height="126" fill="none"><path fill="#000" d="M102.575 29.926c-.231-.246-.477-.491-.722-.722s-.476-.49-.721-.721c-.246-.231-.476-.49-.722-.722-.245-.23-.476-.49-.721-.721s-.476-.49-.722-.722c-.245-.23-.476-.49-.721-.721s-.476-.49-.721-.722a38.18 38.18 0 0 1 11.413 26.636c0 23.909-24.27 43.359-54.108 43.359-16.709 0-31.657-6.104-41.599-15.67l.722.721.721.722.722.721.721.722.721.721.722.722.721.721c9.927 9.97 25.208 16.391 42.32 16.391 29.839 0 54.108-19.45 54.108-43.286 0-10.187-4.386-19.84-12.134-27.43"/><path fill="#FBF0DF" d="M105.331 51.51c0 21.947-22.61 39.738-50.501 39.738S4.329 73.458 4.329 51.511c0-13.607 8.657-25.626 21.96-32.754S47.875 4.33 54.83 4.33s12.9 5.959 28.54 14.429c13.304 7.127 21.962 19.147 21.962 32.753"/><path fill="#F6DECE" d="M105.331 51.511a31.3 31.3 0 0 0-1.155-8.34c-3.939 48.048-62.549 50.357-85.592 35.986A57.7 57.7 0 0 0 54.83 91.248c27.847 0 50.501-17.82 50.501-39.737"/><path fill="#FFFEFC" d="M35.394 16.117c6.45-3.867 15.02-11.125 23.447-11.14a13.4 13.4 0 0 0-4.011-.648c-3.492 0-7.215 1.803-11.904 4.516-1.63.952-3.319 2.005-5.108 3.102-3.362 2.078-7.214 4.43-11.543 6.782-13.736 7.43-21.946 19.68-21.946 32.782v1.717c8.744-30.892 24.63-33.244 31.065-37.111"/><path fill="#CCBEA7" fill-rule="evenodd" d="M50.674 7.98a23.68 23.68 0 0 1-8.123 17.992c-.404.36-.087 1.053.432.851 4.863-1.89 11.428-7.546 8.658-18.96-.116-.649-.967-.475-.967.116m3.275 0a23.43 23.43 0 0 1 2.324 19.435c-.174.505.447.938.793.52 3.16-4.04 5.916-12.063-2.337-20.72-.419-.376-1.068.201-.78.706zm3.983-.246a23.7 23.7 0 0 1 9.883 16.968.476.476 0 0 0 .938.159c1.328-5.036.578-13.62-10.345-18.08-.577-.23-.952.549-.476.895zM31.296 22.74A24.44 24.44 0 0 0 46.403 9.754c.26-.52 1.082-.318.952.26-2.496 11.543-10.85 13.952-16.044 13.635-.549.014-.534-.75-.015-.91" clip-rule="evenodd"/><path fill="#000" d="M54.83 94.87C24.99 94.87.72 75.42.72 51.51c0-14.429 8.917-27.891 23.851-35.957 4.329-2.308 8.037-4.631 11.341-6.666a302 302 0 0 1 5.195-3.16C46.172 2.728 50.5.721 54.83.721s8.109 1.732 12.841 4.531c1.443.823 2.886 1.717 4.43 2.698 3.593 2.222 7.647 4.733 12.986 7.604 14.934 8.066 23.851 21.514 23.851 35.957 0 23.909-24.27 43.359-54.108 43.359m0-90.541c-3.492 0-7.215 1.803-11.904 4.516-1.63.952-3.319 2.005-5.108 3.102-3.362 2.078-7.214 4.43-11.543 6.782-13.736 7.43-21.946 19.68-21.946 32.782 0 21.917 22.653 39.751 50.5 39.751s50.502-17.834 50.502-39.751c0-13.101-8.21-25.351-21.961-32.754-5.454-2.885-9.71-5.598-13.16-7.733-1.572-.967-3.015-1.862-4.328-2.655-4.372-2.597-7.56-4.04-11.052-4.04"/><path fill="#B71422" d="M65.002 62.044a12.9 12.9 0 0 1-4.213 6.796 9.83 9.83 0 0 1-5.772 2.712 9.87 9.87 0 0 1-5.959-2.712 12.9 12.9 0 0 1-4.155-6.796 1.038 1.038 0 0 1 1.154-1.169h17.805a1.038 1.038 0 0 1 1.14 1.169"/><path fill="#FF6164" d="M49.058 68.956a9.97 9.97 0 0 0 5.945 2.741 9.97 9.97 0 0 0 5.93-2.741q.775-.722 1.443-1.544a9.86 9.86 0 0 0-7.07-3.333 8.87 8.87 0 0 0-7.215 4.01c.332.304.62.592.967.867"/><path fill="#000" d="M49.289 67.815a7.73 7.73 0 0 1 6.046-3c2.16.063 4.22.933 5.771 2.438.332-.361.65-.736.953-1.111a10.1 10.1 0 0 0-6.796-2.785 9.18 9.18 0 0 0-7.056 3.405q.511.556 1.082 1.053"/><path fill="#000" d="M54.96 72.418a10.7 10.7 0 0 1-6.421-2.886 13.74 13.74 0 0 1-4.488-7.286 1.73 1.73 0 0 1 .375-1.443 2.04 2.04 0 0 1 1.63-.736h17.806a2.08 2.08 0 0 1 1.63.736 1.72 1.72 0 0 1 .361 1.443 13.74 13.74 0 0 1-4.487 7.286 10.7 10.7 0 0 1-6.407 2.886m-8.903-10.677c-.231 0-.289.1-.303.13a11.96 11.96 0 0 0 3.939 6.305 9 9 0 0 0 5.267 2.525 9.06 9.06 0 0 0 5.266-2.496 11.98 11.98 0 0 0 3.925-6.305.3.3 0 0 0-.289-.13z"/><path fill="#FEBBD0" d="M76.79 62.939c4.662 0 8.441-2.223 8.441-4.964s-3.78-4.964-8.44-4.964c-4.663 0-8.442 2.223-8.442 4.964s3.78 4.963 8.441 4.963M33.114 62.939c4.662 0 8.44-2.223 8.44-4.964s-3.778-4.964-8.44-4.964-8.44 2.223-8.44 4.964 3.778 4.963 8.44 4.963"/><path fill="#000" fill-rule="evenodd" d="M37.082 55.984a7.95 7.95 0 1 0 .028-15.901 7.95 7.95 0 0 0-.028 15.901m35.74 0a7.95 7.95 0 1 0-7.892-7.95 7.936 7.936 0 0 0 7.892 7.95" clip-rule="evenodd"/><path fill="#fff" fill-rule="evenodd" d="M34.63 48.538a2.986 2.986 0 1 0 .028-5.972 2.986 2.986 0 0 0-.029 5.972m35.74 0a2.986 2.986 0 1 0-.03 0z" clip-rule="evenodd"/><path fill="#FB992D" d="M89.8 91.76 94 126l28-15.75v-31.5z"/><path fill="#FFB739" d="M94 90.391V126l-28-15.75v-31.5z"/><path fill="#FB992D" d="m66 78.75 9.788 5.505 18.544-5.33 9.455-10.42L94 63z"/><path fill="#F67A21" d="M84.214 88.995 94 94.5l27.999-15.75-9.786-5.506-18.681 5.407z"/><path fill="#FFEAC3" d="m84.214 102.691-8.426-4.74V84.256l8.121.62.304 4.119z"/><path fill="#FFD488" d="m75.788 84.256 27.999-15.751 8.426 4.739-28 15.75z"/></svg>
