<svg xmlns="http://www.w3.org/2000/svg" width="232" height="73" fill="none"><path fill="url(#a)" d="M.92 59V.68h27.84q8.72 0 13.2 4.16 4.48 4.08 4.48 10.8 0 3.28-1.2 5.92a12.5 12.5 0 0 1-3.44 4.4q-2.24 1.84-5.44 2.56l-.08.48q4 .64 6.56 2.56t3.84 4.72 1.28 6.16q0 5.36-2.48 9.12-2.4 3.68-6.96 5.6Q33.96 59 27.48 59zm10.32-8.24h15.12q5.6 0 8.16-2.48 2.64-2.48 2.64-6.48 0-4.32-2.72-6.48-2.64-2.16-7.36-2.16H10.2v-7.92h16.4q3.12 0 5.12-1.04 2.08-1.04 3.04-2.8 1.04-1.84 1.04-4.32 0-4-2.72-6.08-2.64-2.16-7.04-2.16h-14.8zm56.555 8.96q-4.8 0-8.24-1.92t-5.28-5.68q-1.76-3.84-1.76-9.28v-26.4h10V40.2q0 3.6.96 6.16.96 2.48 2.96 3.84t5.2 1.36 5.52-1.6q2.4-1.6 3.68-4.24 1.28-2.72 1.28-6.08v-23.2h10V59h-9.6l-.4-8.24h-.48q-1.6 4.32-5.36 6.64-3.68 2.32-8.48 2.32m31.05-.72V16.44h9.599l.4 8.08h.48q1.84-4.48 5.6-6.64 3.76-2.24 8.4-2.24 3.2 0 5.92 1.04a11.54 11.54 0 0 1 4.8 3.12q2.08 2.08 3.2 5.52 1.2 3.36 1.2 8.16V59h-10V35.64q0-4-.96-6.56-.96-2.64-2.96-3.92-1.92-1.28-5.04-1.28-3.36 0-5.76 1.6-2.319 1.6-3.6 4.24-1.28 2.64-1.28 5.84V59zm60.169.72q-4.8 0-8.24-1.92t-5.28-5.68q-1.76-3.84-1.76-9.28v-26.4h10V40.2q0 3.6.96 6.16.96 2.48 2.96 3.84t5.2 1.36 5.52-1.6q2.4-1.6 3.68-4.24 1.28-2.72 1.28-6.08v-23.2h10V59h-9.6l-.4-8.24h-.48q-1.6 4.32-5.36 6.64-3.68 2.32-8.48 2.32m31.049 12.64V16.44h9.52l.4 7.76h.56q1.36-3.84 5.04-6.16 3.68-2.4 8.72-2.4 3.92 0 7.12 1.52t5.52 4.4q2.32 2.8 3.52 6.88 1.28 4.08 1.28 9.28 0 6.88-2.24 11.84-2.16 4.96-6.08 7.6t-9.12 2.64q-3.36 0-6.16-1.04-2.799-1.12-4.8-3.04a11.7 11.7 0 0 1-2.8-4.4h-.48v21.04zm20.48-20.72q3.52 0 6-1.68t3.68-4.8q1.28-3.2 1.28-7.44 0-4.32-1.2-7.44t-3.6-4.8-5.92-1.68-5.92 1.6q-2.4 1.52-3.6 4.24-1.2 2.64-1.2 5.84v4.56q0 3.28 1.28 5.92a10.9 10.9 0 0 0 3.6 4.16q2.32 1.52 5.6 1.52"/><defs><linearGradient id="a" x1="115" x2="115" y1="-28" y2="85" gradientUnits="userSpaceOnUse"><stop stop-color="#F0DB4F"/><stop offset="1" stop-color="#FF5D13"/></linearGradient></defs></svg>