<svg width="240" height="88" viewBox="0 0 240 88" fill="none" xmlns="http://www.w3.org/2000/svg">
<path d="M5.92 74V15.68H33.76C39.5733 15.68 43.9733 17.0666 46.96 19.84C49.9467 22.56 51.44 26.16 51.44 30.64C51.44 32.8267 51.04 34.8 50.24 36.56C49.44 38.2667 48.2934 39.7333 46.8 40.96C45.3067 42.1867 43.4933 43.04 41.36 43.52L41.28 44C43.9467 44.4267 46.1334 45.28 47.84 46.56C49.5467 47.84 50.8267 49.4133 51.68 51.28C52.5334 53.1467 52.96 55.2 52.96 57.44C52.96 61.0133 52.1334 64.0533 50.48 66.56C48.88 69.0133 46.56 70.88 43.52 72.16C40.48 73.3867 36.8 74 32.48 74H5.92ZM16.24 65.76H31.36C35.0933 65.76 37.8133 64.9333 39.52 63.28C41.28 61.6267 42.16 59.4667 42.16 56.8C42.16 53.92 41.2533 51.76 39.44 50.32C37.68 48.88 35.2267 48.16 32.08 48.16H15.2V40.24H31.6C33.68 40.24 35.3867 39.8933 36.72 39.2C38.1067 38.5067 39.12 37.5733 39.76 36.4C40.4533 35.1733 40.8 33.7333 40.8 32.08C40.8 29.4133 39.8933 27.3867 38.08 26C36.32 24.56 33.9733 23.84 31.04 23.84H16.24V65.76ZM72.795 74.72C69.595 74.72 66.8484 74.08 64.555 72.8C62.2617 71.52 60.5017 69.6267 59.275 67.12C58.1017 64.56 57.515 61.4667 57.515 57.84V31.44H67.515V55.2C67.515 57.6 67.835 59.6533 68.475 61.36C69.115 63.0133 70.1017 64.2933 71.435 65.2C72.7684 66.1067 74.5017 66.56 76.635 66.56C78.7684 66.56 80.6084 66.0267 82.155 64.96C83.755 63.8933 84.9817 62.48 85.835 60.72C86.6884 58.9067 87.115 56.88 87.115 54.64V31.44H97.115V74H87.515L87.115 65.76H86.635C85.5684 68.64 83.7817 70.8533 81.275 72.4C78.8217 73.9467 75.995 74.72 72.795 74.72ZM103.844 74V31.44H113.444L113.844 39.52H114.324C115.551 36.5333 117.418 34.32 119.924 32.88C122.431 31.3867 125.231 30.64 128.324 30.64C130.458 30.64 132.431 30.9867 134.244 31.68C136.111 32.32 137.711 33.36 139.044 34.8C140.431 36.1867 141.498 38.0267 142.244 40.32C143.044 42.56 143.444 45.28 143.444 48.48V74H133.444V50.64C133.444 47.9733 133.124 45.7867 132.484 44.08C131.844 42.32 130.858 41.0133 129.524 40.16C128.244 39.3067 126.564 38.88 124.484 38.88C122.244 38.88 120.324 39.4133 118.724 40.48C117.178 41.5467 115.978 42.96 115.124 44.72C114.271 46.48 113.844 48.4267 113.844 50.56V74H103.844ZM164.014 74.72C160.814 74.72 158.067 74.08 155.774 72.8C153.48 71.52 151.72 69.6267 150.494 67.12C149.32 64.56 148.734 61.4667 148.734 57.84V31.44H158.734V55.2C158.734 57.6 159.054 59.6533 159.694 61.36C160.334 63.0133 161.32 64.2933 162.654 65.2C163.987 66.1067 165.72 66.56 167.854 66.56C169.987 66.56 171.827 66.0267 173.374 64.96C174.974 63.8933 176.2 62.48 177.054 60.72C177.907 58.9067 178.334 56.88 178.334 54.64V31.44H188.334V74H178.734L178.334 65.76H177.854C176.787 68.64 175 70.8533 172.494 72.4C170.04 73.9467 167.214 74.72 164.014 74.72ZM195.063 87.36V31.44H204.583L204.983 39.2H205.543C206.45 36.64 208.13 34.5867 210.583 33.04C213.037 31.44 215.943 30.64 219.303 30.64C221.917 30.64 224.29 31.1467 226.423 32.16C228.557 33.1733 230.397 34.64 231.943 36.56C233.49 38.4267 234.663 40.72 235.463 43.44C236.317 46.16 236.743 49.2533 236.743 52.72C236.743 57.3067 235.997 61.2533 234.503 64.56C233.063 67.8667 231.037 70.4 228.423 72.16C225.81 73.92 222.77 74.8 219.303 74.8C217.063 74.8 215.01 74.4533 213.143 73.76C211.277 73.0133 209.677 72 208.343 70.72C207.063 69.44 206.13 67.9733 205.543 66.32H205.063V87.36H195.063ZM215.543 66.64C217.89 66.64 219.89 66.08 221.543 64.96C223.197 63.84 224.423 62.24 225.223 60.16C226.077 58.0267 226.503 55.5467 226.503 52.72C226.503 49.84 226.103 47.36 225.303 45.28C224.503 43.2 223.303 41.6 221.703 40.48C220.103 39.36 218.13 38.8 215.783 38.8C213.437 38.8 211.463 39.3333 209.863 40.4C208.263 41.4133 207.063 42.8267 206.263 44.64C205.463 46.4 205.063 48.3467 205.063 50.48V55.04C205.063 57.2267 205.49 59.2 206.343 60.96C207.197 62.6667 208.397 64.0533 209.943 65.12C211.49 66.1333 213.357 66.64 215.543 66.64Z" fill="url(#paint0_linear_115_112)"/>
<defs>
<linearGradient id="paint0_linear_115_112" x1="120" y1="-13" x2="120" y2="100" gradientUnits="userSpaceOnUse">
<stop stop-color="#F0DB4F"/>
<stop offset="1" stop-color="#FF5D13"/>
</linearGradient>
</defs>
</svg>
